<svg xmlns="http://www.w3.org/2000/svg" width="847.503" height="199.536" viewBox="0 0 847.503 199.536"><g transform="translate(-39.478 -47.518)"><g transform="translate(-1079.578 -617.777)" fill="#4bad8d"><path d="M 1457.01806640625 734.490478515625 L 1454.189575195313 731.6568603515625 L 1399.468994140625 676.8359985351563 L 1392.655639648438 670.0101318359375 L 1402.300048828125 670.0101318359375 L 1511.841552734375 670.0101318359375 L 1521.498413085938 670.0101318359375 L 1514.669921875 676.8385620117188 L 1459.848999023438 731.6594848632813 L 1457.01806640625 734.490478515625 Z" stroke="none"/><path d="M 1402.300048828125 674.0101318359375 L 1457.020629882813 728.8310546875 L 1511.841552734375 674.0101318359375 L 1402.300048828125 674.0101318359375 M 1383.011352539063 666.0101318359375 L 1402.300048828125 666.0101318359375 L 1511.841552734375 666.0101318359375 L 1531.1552734375 666.0101318359375 L 1517.498413085938 679.6669921875 L 1462.677490234375 734.4879150390625 L 1457.015502929688 740.1499633789063 L 1451.358642578125 734.4827270507813 L 1396.637939453125 679.6618041992188 L 1383.011352539063 666.0101318359375 Z" stroke="none" fill="#111"/></g><g transform="translate(-907.578 -617.777)" fill="#4bad8d"><path d="M 1457.01806640625 734.490478515625 L 1454.189575195313 731.6568603515625 L 1399.468994140625 676.8359985351563 L 1392.655639648438 670.0101318359375 L 1402.300048828125 670.0101318359375 L 1511.841552734375 670.0101318359375 L 1521.498413085938 670.0101318359375 L 1514.669921875 676.8385620117188 L 1459.848999023438 731.6594848632813 L 1457.01806640625 734.490478515625 Z" stroke="none"/><path d="M 1402.300048828125 674.0101318359375 L 1457.020629882813 728.8310546875 L 1511.841552734375 674.0101318359375 L 1402.300048828125 674.0101318359375 M 1383.011352539063 666.0101318359375 L 1402.300048828125 666.0101318359375 L 1511.841552734375 666.0101318359375 L 1531.1552734375 666.0101318359375 L 1517.498413085938 679.6669921875 L 1462.677490234375 734.4879150390625 L 1457.015502929688 740.1499633789063 L 1451.358642578125 734.4827270507813 L 1396.637939453125 679.6618041992188 L 1383.011352539063 666.0101318359375 Z" stroke="none" fill="#111"/></g><g transform="translate(2006.563 913.064) rotate(180)" fill="#4bad8d"><path d="M 1457.01806640625 734.490478515625 L 1454.189575195313 731.6568603515625 L 1399.468994140625 676.8359985351563 L 1392.655639648438 670.0101318359375 L 1402.300048828125 670.0101318359375 L 1511.841552734375 670.0101318359375 L 1521.498413085938 670.0101318359375 L 1514.669921875 676.8385620117188 L 1459.848999023438 731.6594848632813 L 1457.01806640625 734.490478515625 Z" stroke="none"/><path d="M 1402.300048828125 674.0101318359375 L 1457.020629882813 728.8310546875 L 1511.841552734375 674.0101318359375 L 1402.300048828125 674.0101318359375 M 1383.011352539063 666.0101318359375 L 1402.300048828125 666.0101318359375 L 1511.841552734375 666.0101318359375 L 1531.1552734375 666.0101318359375 L 1517.498413085938 679.6669921875 L 1462.677490234375 734.4879150390625 L 1457.015502929688 740.1499633789063 L 1451.358642578125 734.4827270507813 L 1396.637939453125 679.6618041992188 L 1383.011352539063 666.0101318359375 Z" stroke="none" fill="#111"/></g><g transform="translate(1834.563 912.064) rotate(180)" fill="#4bad8d"><path d="M 1457.01806640625 734.490478515625 L 1454.189575195313 731.6568603515625 L 1399.468994140625 676.8359985351563 L 1392.655639648438 670.0101318359375 L 1402.300048828125 670.0101318359375 L 1511.841552734375 670.0101318359375 L 1521.498413085938 670.0101318359375 L 1514.669921875 676.8385620117188 L 1459.848999023438 731.6594848632813 L 1457.01806640625 734.490478515625 Z" stroke="none"/><path d="M 1402.300048828125 674.0101318359375 L 1457.020629882813 728.8310546875 L 1511.841552734375 674.0101318359375 L 1402.300048828125 674.0101318359375 M 1383.011352539063 666.0101318359375 L 1402.300048828125 666.0101318359375 L 1511.841552734375 666.0101318359375 L 1531.1552734375 666.0101318359375 L 1517.498413085938 679.6669921875 L 1462.677490234375 734.4879150390625 L 1457.015502929688 740.1499633789063 L 1451.358642578125 734.4827270507813 L 1396.637939453125 679.6618041992188 L 1383.011352539063 666.0101318359375 Z" stroke="none" fill="#111"/></g><g transform="translate(-626.532 1629.992) rotate(-90)" fill="#4cad4b"><path d="M 1482.653564453125 760.1729125976563 L 1479.825073242188 757.3392944335938 L 1399.468994140625 676.8360595703125 L 1392.655639648438 670.0101928710938 L 1402.300048828125 670.0101928710938 L 1563.159423828125 670.0101928710938 L 1572.816284179688 670.0101928710938 L 1565.987915039063 676.838623046875 L 1485.484497070313 757.3418579101563 L 1482.653564453125 760.1729125976563 Z" stroke="none"/><path d="M 1402.300048828125 674.0101928710938 L 1482.656127929688 754.513427734375 L 1563.159423828125 674.0101928710938 L 1402.300048828125 674.0101928710938 M 1383.011352539063 666.0101928710938 L 1402.300048828125 666.0101928710938 L 1563.159423828125 666.0101928710938 L 1582.47314453125 666.0101928710938 L 1568.816284179688 679.6670532226563 L 1488.31298828125 760.1702880859375 L 1482.651000976563 765.8323364257813 L 1476.994140625 760.1651000976563 L 1396.638061523438 679.661865234375 L 1383.011352539063 666.0101928710938 Z" stroke="none" fill="#111"/></g><g transform="translate(-544.532 1629.992) rotate(-90)" fill="#4cad4b"><path d="M 1482.653564453125 760.1729125976563 L 1479.825073242188 757.3392944335938 L 1399.468994140625 676.8360595703125 L 1392.655639648438 670.0101928710938 L 1402.300048828125 670.0101928710938 L 1563.159423828125 670.0101928710938 L 1572.816284179688 670.0101928710938 L 1565.987915039063 676.838623046875 L 1485.484497070313 757.3418579101563 L 1482.653564453125 760.1729125976563 Z" stroke="none"/><path d="M 1402.300048828125 674.0101928710938 L 1482.656127929688 754.513427734375 L 1563.159423828125 674.0101928710938 L 1402.300048828125 674.0101928710938 M 1383.011352539063 666.0101928710938 L 1402.300048828125 666.0101928710938 L 1563.159423828125 666.0101928710938 L 1582.47314453125 666.0101928710938 L 1568.816284179688 679.6670532226563 L 1488.31298828125 760.1702880859375 L 1482.651000976563 765.8323364257813 L 1476.994140625 760.1651000976563 L 1396.638061523438 679.661865234375 L 1383.011352539063 666.0101928710938 Z" stroke="none" fill="#111"/></g><g transform="translate(-463.532 1629.992) rotate(-90)" fill="#4cad4b"><path d="M 1482.653564453125 760.1729125976563 L 1479.825073242188 757.3392944335938 L 1399.468994140625 676.8360595703125 L 1392.655639648438 670.0101928710938 L 1402.300048828125 670.0101928710938 L 1563.159423828125 670.0101928710938 L 1572.816284179688 670.0101928710938 L 1565.987915039063 676.838623046875 L 1485.484497070313 757.3418579101563 L 1482.653564453125 760.1729125976563 Z" stroke="none"/><path d="M 1402.300048828125 674.0101928710938 L 1482.656127929688 754.513427734375 L 1563.159423828125 674.0101928710938 L 1402.300048828125 674.0101928710938 M 1383.011352539063 666.0101928710938 L 1402.300048828125 666.0101928710938 L 1563.159423828125 666.0101928710938 L 1582.47314453125 666.0101928710938 L 1568.816284179688 679.6670532226563 L 1488.31298828125 760.1702880859375 L 1482.651000976563 765.8323364257813 L 1476.994140625 760.1651000976563 L 1396.638061523438 679.661865234375 L 1383.011352539063 666.0101928710938 Z" stroke="none" fill="#111"/></g><g transform="translate(-384.532 1629.992) rotate(-90)" fill="#4cad4b"><path d="M 1482.653564453125 760.1729125976563 L 1479.825073242188 757.3392944335938 L 1399.468994140625 676.8360595703125 L 1392.655639648438 670.0101928710938 L 1402.300048828125 670.0101928710938 L 1563.159423828125 670.0101928710938 L 1572.816284179688 670.0101928710938 L 1565.987915039063 676.838623046875 L 1485.484497070313 757.3418579101563 L 1482.653564453125 760.1729125976563 Z" stroke="none"/><path d="M 1402.300048828125 674.0101928710938 L 1482.656127929688 754.513427734375 L 1563.159423828125 674.0101928710938 L 1402.300048828125 674.0101928710938 M 1383.011352539063 666.0101928710938 L 1402.300048828125 666.0101928710938 L 1563.159423828125 666.0101928710938 L 1582.47314453125 666.0101928710938 L 1568.816284179688 679.6670532226563 L 1488.31298828125 760.1702880859375 L 1482.651000976563 765.8323364257813 L 1476.994140625 760.1651000976563 L 1396.638061523438 679.661865234375 L 1383.011352539063 666.0101928710938 Z" stroke="none" fill="#111"/></g><g transform="translate(1552.992 -1335.468) rotate(90)" fill="#4cad4b"><path d="M 1482.653564453125 760.1729125976563 L 1479.825073242188 757.3392944335938 L 1399.468994140625 676.8360595703125 L 1392.655639648438 670.0101928710938 L 1402.300048828125 670.0101928710938 L 1563.159423828125 670.0101928710938 L 1572.816284179688 670.0101928710938 L 1565.987915039063 676.838623046875 L 1485.484497070313 757.3418579101563 L 1482.653564453125 760.1729125976563 Z" stroke="none"/><path d="M 1402.300048828125 674.0101928710938 L 1482.656127929688 754.513427734375 L 1563.159423828125 674.0101928710938 L 1402.300048828125 674.0101928710938 M 1383.011352539063 666.0101928710938 L 1402.300048828125 666.0101928710938 L 1563.159423828125 666.0101928710938 L 1582.47314453125 666.0101928710938 L 1568.816284179688 679.6670532226563 L 1488.31298828125 760.1702880859375 L 1482.651000976563 765.8323364257813 L 1476.994140625 760.1651000976563 L 1396.638061523438 679.661865234375 L 1383.011352539063 666.0101928710938 Z" stroke="none" fill="#111"/></g><g transform="translate(1470.992 -1335.468) rotate(90)" fill="#4cad4b"><path d="M 1482.653564453125 760.1729125976563 L 1479.825073242188 757.3392944335938 L 1399.468994140625 676.8360595703125 L 1392.655639648438 670.0101928710938 L 1402.300048828125 670.0101928710938 L 1563.159423828125 670.0101928710938 L 1572.816284179688 670.0101928710938 L 1565.987915039063 676.838623046875 L 1485.484497070313 757.3418579101563 L 1482.653564453125 760.1729125976563 Z" stroke="none"/><path d="M 1402.300048828125 674.0101928710938 L 1482.656127929688 754.513427734375 L 1563.159423828125 674.0101928710938 L 1402.300048828125 674.0101928710938 M 1383.011352539063 666.0101928710938 L 1402.300048828125 666.0101928710938 L 1563.159423828125 666.0101928710938 L 1582.47314453125 666.0101928710938 L 1568.816284179688 679.6670532226563 L 1488.31298828125 760.1702880859375 L 1482.651000976563 765.8323364257813 L 1476.994140625 760.1651000976563 L 1396.638061523438 679.661865234375 L 1383.011352539063 666.0101928710938 Z" stroke="none" fill="#111"/></g><g transform="translate(1389.992 -1335.468) rotate(90)" fill="#4cad4b"><path d="M 1482.653564453125 760.1729125976563 L 1479.825073242188 757.3392944335938 L 1399.468994140625 676.8360595703125 L 1392.655639648438 670.0101928710938 L 1402.300048828125 670.0101928710938 L 1563.159423828125 670.0101928710938 L 1572.816284179688 670.0101928710938 L 1565.987915039063 676.838623046875 L 1485.484497070313 757.3418579101563 L 1482.653564453125 760.1729125976563 Z" stroke="none"/><path d="M 1402.300048828125 674.0101928710938 L 1482.656127929688 754.513427734375 L 1563.159423828125 674.0101928710938 L 1402.300048828125 674.0101928710938 M 1383.011352539063 666.0101928710938 L 1402.300048828125 666.0101928710938 L 1563.159423828125 666.0101928710938 L 1582.47314453125 666.0101928710938 L 1568.816284179688 679.6670532226563 L 1488.31298828125 760.1702880859375 L 1482.651000976563 765.8323364257813 L 1476.994140625 760.1651000976563 L 1396.638061523438 679.661865234375 L 1383.011352539063 666.0101928710938 Z" stroke="none" fill="#111"/></g><g transform="translate(1311.992 -1335.468) rotate(90)" fill="#4cad4b"><path d="M 1482.653564453125 760.1729125976563 L 1479.825073242188 757.3392944335938 L 1399.468994140625 676.8360595703125 L 1392.655639648438 670.0101928710938 L 1402.300048828125 670.0101928710938 L 1563.159423828125 670.0101928710938 L 1572.816284179688 670.0101928710938 L 1565.987915039063 676.838623046875 L 1485.484497070313 757.3418579101563 L 1482.653564453125 760.1729125976563 Z" stroke="none"/><path d="M 1402.300048828125 674.0101928710938 L 1482.656127929688 754.513427734375 L 1563.159423828125 674.0101928710938 L 1402.300048828125 674.0101928710938 M 1383.011352539063 666.0101928710938 L 1402.300048828125 666.0101928710938 L 1563.159423828125 666.0101928710938 L 1582.47314453125 666.0101928710938 L 1568.816284179688 679.6670532226563 L 1488.31298828125 760.1702880859375 L 1482.651000976563 765.8323364257813 L 1476.994140625 760.1651000976563 L 1396.638061523438 679.661865234375 L 1383.011352539063 666.0101928710938 Z" stroke="none" fill="#111"/></g><g transform="translate(382.385 147.233) rotate(-45)" fill="#4cad4b" stroke="#111" stroke-width="8"><rect width="114.163" height="114.163" stroke="none"/><rect x="-4" y="-4" width="122.163" height="122.163" fill="none"/></g><g transform="translate(267.833 93.742) rotate(180)" fill="#4bad8d"><path d="M 42.33731079101563 39.50888061523438 L 37.50888061523438 39.50888061523438 L 3.076171992688614e-07 39.50888061523438 L -1.999999642372131 39.50888061523438 L -1.999999642372131 37.50888061523438 L -1.999999642372131 3.076171992688614e-07 L -1.999999642372131 -4.828429698944092 L 1.414210319519043 -1.414209723472595 L 38.92309188842773 36.09466934204102 L 42.33731079101563 39.50888061523438 Z" stroke="none"/><path d="M 0 0 L 0 37.50888061523438 L 37.50888061523438 37.50888061523438 L 0 0 M -4 -9.656848907470703 L 2.82843017578125 -2.82843017578125 L 40.33731079101563 34.68045043945313 L 47.16572952270508 41.50888061523438 L 37.50888061523438 41.50888061523438 L 0 41.50888061523438 L -4 41.50888061523438 L -4 37.50888061523438 L -4 0 L -4 -9.656848907470703 Z" stroke="none" fill="#111"/></g><g transform="translate(187.833 93.742) rotate(180)" fill="#4bad8d"><path d="M 42.33731079101563 39.50888061523438 L 37.50888061523438 39.50888061523438 L 3.076171992688614e-07 39.50888061523438 L -1.999999642372131 39.50888061523438 L -1.999999642372131 37.50888061523438 L -1.999999642372131 3.076171992688614e-07 L -1.999999642372131 -4.828429698944092 L 1.414210319519043 -1.414209723472595 L 38.92309188842773 36.09466934204102 L 42.33731079101563 39.50888061523438 Z" stroke="none"/><path d="M 0 0 L 0 37.50888061523438 L 37.50888061523438 37.50888061523438 L 0 0 M -4 -9.656848907470703 L 2.82843017578125 -2.82843017578125 L 40.33731079101563 34.68045043945313 L 47.16572952270508 41.50888061523438 L 37.50888061523438 41.50888061523438 L 0 41.50888061523438 L -4 41.50888061523438 L -4 37.50888061523438 L -4 0 L -4 -9.656848907470703 Z" stroke="none" fill="#111"/></g><g transform="translate(695.833 56.233) rotate(90)" fill="#4bad8d"><path d="M 42.33731079101563 39.50888061523438 L 37.50888061523438 39.50888061523438 L 3.076171992688614e-07 39.50888061523438 L -1.999999642372131 39.50888061523438 L -1.999999642372131 37.50888061523438 L -1.999999642372131 3.076171992688614e-07 L -1.999999642372131 -4.828429698944092 L 1.414210319519043 -1.414209723472595 L 38.92309188842773 36.09466934204102 L 42.33731079101563 39.50888061523438 Z" stroke="none"/><path d="M 0 0 L 0 37.50888061523438 L 37.50888061523438 37.50888061523438 L 0 0 M -4 -9.656848907470703 L 2.82843017578125 -2.82843017578125 L 40.33731079101563 34.68045043945313 L 47.16572952270508 41.50888061523438 L 37.50888061523438 41.50888061523438 L 0 41.50888061523438 L -4 41.50888061523438 L -4 37.50888061523438 L -4 0 L -4 -9.656848907470703 Z" stroke="none" fill="#111"/></g><g transform="translate(774.833 56.233) rotate(90)" fill="#4bad8d"><path d="M 42.33731079101563 39.50888061523438 L 37.50888061523438 39.50888061523438 L 3.076171992688614e-07 39.50888061523438 L -1.999999642372131 39.50888061523438 L -1.999999642372131 37.50888061523438 L -1.999999642372131 3.076171992688614e-07 L -1.999999642372131 -4.828429698944092 L 1.414210319519043 -1.414209723472595 L 38.92309188842773 36.09466934204102 L 42.33731079101563 39.50888061523438 Z" stroke="none"/><path d="M 0 0 L 0 37.50888061523438 L 37.50888061523438 37.50888061523438 L 0 0 M -4 -9.656848907470703 L 2.82843017578125 -2.82843017578125 L 40.33731079101563 34.68045043945313 L 47.16572952270508 41.50888061523438 L 37.50888061523438 41.50888061523438 L 0 41.50888061523438 L -4 41.50888061523438 L -4 37.50888061523438 L -4 0 L -4 -9.656848907470703 Z" stroke="none" fill="#111"/></g><g transform="translate(230.324 238.742) rotate(-90)" fill="#4bad8d"><path d="M 42.33731079101563 39.50888061523438 L 37.50888061523438 39.50888061523438 L 3.076171992688614e-07 39.50888061523438 L -1.999999642372131 39.50888061523438 L -1.999999642372131 37.50888061523438 L -1.999999642372131 3.076171992688614e-07 L -1.999999642372131 -4.828429698944092 L 1.414210319519043 -1.414209723472595 L 38.92309188842773 36.09466934204102 L 42.33731079101563 39.50888061523438 Z" stroke="none"/><path d="M 0 0 L 0 37.50888061523438 L 37.50888061523438 37.50888061523438 L 0 0 M -4 -9.656848907470703 L 2.82843017578125 -2.82843017578125 L 40.33731079101563 34.68045043945313 L 47.16572952270508 41.50888061523438 L 37.50888061523438 41.50888061523438 L 0 41.50888061523438 L -4 41.50888061523438 L -4 37.50888061523438 L -4 0 L -4 -9.656848907470703 Z" stroke="none" fill="#111"/></g><g transform="translate(150.324 238.742) rotate(-90)" fill="#4bad8d"><path d="M 42.33731079101563 39.50888061523438 L 37.50888061523438 39.50888061523438 L 3.076171992688614e-07 39.50888061523438 L -1.999999642372131 39.50888061523438 L -1.999999642372131 37.50888061523438 L -1.999999642372131 3.076171992688614e-07 L -1.999999642372131 -4.828429698944092 L 1.414210319519043 -1.414209723472595 L 38.92309188842773 36.09466934204102 L 42.33731079101563 39.50888061523438 Z" stroke="none"/><path d="M 0 0 L 0 37.50888061523438 L 37.50888061523438 37.50888061523438 L 0 0 M -4 -9.656848907470703 L 2.82843017578125 -2.82843017578125 L 40.33731079101563 34.68045043945313 L 47.16572952270508 41.50888061523438 L 37.50888061523438 41.50888061523438 L 0 41.50888061523438 L -4 41.50888061523438 L -4 37.50888061523438 L -4 0 L -4 -9.656848907470703 Z" stroke="none" fill="#111"/></g><g transform="translate(658.324 201.233)" fill="#4bad8d"><path d="M 42.33731079101563 39.50888061523438 L 37.50888061523438 39.50888061523438 L 3.076171992688614e-07 39.50888061523438 L -1.999999642372131 39.50888061523438 L -1.999999642372131 37.50888061523438 L -1.999999642372131 3.076171992688614e-07 L -1.999999642372131 -4.828429698944092 L 1.414210319519043 -1.414209723472595 L 38.92309188842773 36.09466934204102 L 42.33731079101563 39.50888061523438 Z" stroke="none"/><path d="M 0 0 L 0 37.50888061523438 L 37.50888061523438 37.50888061523438 L 0 0 M -4 -9.656848907470703 L 2.82843017578125 -2.82843017578125 L 40.33731079101563 34.68045043945313 L 47.16572952270508 41.50888061523438 L 37.50888061523438 41.50888061523438 L 0 41.50888061523438 L -4 41.50888061523438 L -4 37.50888061523438 L -4 0 L -4 -9.656848907470703 Z" stroke="none" fill="#111"/></g><g transform="translate(737.324 201.233)" fill="#4bad8d"><path d="M 42.33731079101563 39.50888061523438 L 37.50888061523438 39.50888061523438 L 3.076171992688614e-07 39.50888061523438 L -1.999999642372131 39.50888061523438 L -1.999999642372131 37.50888061523438 L -1.999999642372131 3.076171992688614e-07 L -1.999999642372131 -4.828429698944092 L 1.414210319519043 -1.414209723472595 L 38.92309188842773 36.09466934204102 L 42.33731079101563 39.50888061523438 Z" stroke="none"/><path d="M 0 0 L 0 37.50888061523438 L 37.50888061523438 37.50888061523438 L 0 0 M -4 -9.656848907470703 L 2.82843017578125 -2.82843017578125 L 40.33731079101563 34.68045043945313 L 47.16572952270508 41.50888061523438 L 37.50888061523438 41.50888061523438 L 0 41.50888061523438 L -4 41.50888061523438 L -4 37.50888061523438 L -4 0 L -4 -9.656848907470703 Z" stroke="none" fill="#111"/></g></g></svg>